<svg aria-hidden="true" style="position: absolute; width: 0; height: 0; overflow: hidden;" version="1.1" xmlns="http://www.w3.org/2000/svg" xmlns:xlink="http://www.w3.org/1999/xlink">
<defs>
<symbol id="icon-award" viewBox="0 0 24 24">
<title>award</title>
<path d="M20 8c0-4.4-3.6-8-8-8s-8 3.6-8 8c0 2.6 1.2 4.9 3.1 6.3l-1.1 8.6c-0.1 0.4 0.1 0.8 0.4 1s0.7 0.2 1.1 0l4.5-2.7 4.5 2.7c0.1 0.1 0.3 0.1 0.5 0.1s0.4-0.1 0.5-0.2 0.5-0.6 0.4-1l-1.1-8.5c2-1.4 3.2-3.7 3.2-6.3zM6 8c0-3.3 2.7-6 6-6s6 2.7 6 6-2.7 6-6 6-6-2.7-6-6zM15.7 21.1l-3.2-1.9c-0.3-0.2-0.7-0.2-1 0l-3.2 1.9 0.7-5.7c0.9 0.4 1.9 0.6 3 0.6s2.1-0.2 3-0.6l0.7 5.7z"></path>
</symbol>
<symbol id="icon-bell" viewBox="0 0 24 24">
<title>bell</title>
<path d="M14.2 20.1c-0.5-0.3-1.1-0.1-1.4 0.4s-0.9 0.6-1.4 0.4c-0.2-0.1-0.3-0.2-0.4-0.4-0.3-0.5-0.9-0.6-1.4-0.4-0.5 0.3-0.6 0.9-0.4 1.4 0.3 0.5 0.6 0.8 1.1 1.1s1 0.4 1.5 0.4c1 0 2-0.5 2.6-1.5 0.5-0.5 0.3-1.1-0.2-1.4z"></path>
<path d="M22 16c-1.1 0-2-0.9-2-2v-5c0-4.4-3.6-8-8-8s-8 3.6-8 8v5c0 1.1-0.9 2-2 2-0.6 0-1 0.4-1 1s0.4 1 1 1h20c0.6 0 1-0.4 1-1s-0.4-1-1-1zM5.5 16c0.3-0.6 0.5-1.3 0.5-2v-5c0-3.3 2.7-6 6-6s6 2.7 6 6v5c0 0.7 0.2 1.4 0.5 2h-13z"></path>
</symbol>
<symbol id="icon-cast" viewBox="0 0 24 24">
<title>cast</title>
<path d="M2.1 11.1c-0.5-0.1-1 0.3-1.1 0.9-0.1 0.5 0.3 1 0.9 1.1 3.7 0.4 6.6 3.3 7.1 7.1 0 0.4 0.4 0.8 0.9 0.8 0 0 0.1 0 0.1 0 0.5-0.1 0.9-0.6 0.9-1.1-0.5-4.7-4.1-8.3-8.8-8.8z"></path>
<path d="M2.2 15.1c-0.5-0.1-1.1 0.3-1.2 0.8s0.2 1.1 0.8 1.2c1.6 0.3 2.8 1.5 3.1 3.1 0.1 0.5 0.5 0.8 1 0.8 0.1 0 0.1 0 0.2 0 0.5-0.1 0.9-0.6 0.8-1.2-0.5-2.4-2.3-4.2-4.7-4.7z"></path>
<path d="M20 3h-16c-1.7 0-3 1.3-3 3v2c0 0.6 0.4 1 1 1s1-0.4 1-1v-2c0-0.6 0.4-1 1-1h16c0.6 0 1 0.4 1 1v12c0 0.6-0.4 1-1 1h-6c-0.6 0-1 0.4-1 1s0.4 1 1 1h6c1.7 0 3-1.3 3-3v-12c0-1.7-1.3-3-3-3z"></path>
<path d="M1.3 19.3c-0.2 0.2-0.3 0.4-0.3 0.7s0.1 0.5 0.3 0.7c0.2 0.2 0.4 0.3 0.7 0.3s0.5-0.1 0.7-0.3c0.2-0.2 0.3-0.4 0.3-0.7s-0.1-0.5-0.3-0.7c-0.4-0.4-1-0.4-1.4 0z"></path>
</symbol>
<symbol id="icon-chevrons-down" viewBox="0 0 24 24">
<title>chevrons-down</title>
<path d="M16.3 12.3l-4.3 4.3-4.3-4.3c-0.4-0.4-1-0.4-1.4 0s-0.4 1 0 1.4l5 5c0.2 0.2 0.5 0.3 0.7 0.3s0.5-0.1 0.7-0.3l5-5c0.4-0.4 0.4-1 0-1.4s-1-0.4-1.4 0z"></path>
<path d="M11.3 11.7c0.2 0.2 0.5 0.3 0.7 0.3s0.5-0.1 0.7-0.3l5-5c0.4-0.4 0.4-1 0-1.4s-1-0.4-1.4 0l-4.3 4.3-4.3-4.3c-0.4-0.4-1-0.4-1.4 0s-0.4 1 0 1.4l5 5z"></path>
</symbol>
<symbol id="icon-edit" viewBox="0 0 24 24">
<title>edit</title>
<path d="M20 13.7c-0.6 0-1 0.4-1 1v5.3c0 0.6-0.4 1-1 1h-14c-0.6 0-1-0.4-1-1v-14c0-0.6 0.4-1 1-1h5.3c0.6 0 1-0.4 1-1s-0.4-1-1-1h-5.3c-1.7 0-3 1.3-3 3v14c0 1.7 1.3 3 3 3h14c1.7 0 3-1.3 3-3v-5.3c0-0.6-0.4-1-1-1z"></path>
<path d="M22.7 5.3l-4-4c-0.4-0.4-1-0.4-1.4 0l-10 10c-0.2 0.2-0.3 0.4-0.3 0.7v4c0 0.6 0.4 1 1 1h4c0.3 0 0.5-0.1 0.7-0.3l10-10c0.4-0.4 0.4-1 0-1.4zM11.6 15h-2.6v-2.6l9-9 2.6 2.6-9 9z"></path>
</symbol>
<symbol id="icon-edit-2" viewBox="0 0 24 24">
<title>edit-2</title>
<path d="M21.7 7.3l-5-5c-0.4-0.4-1-0.4-1.4 0l-13 13c-0.2 0.2-0.3 0.4-0.3 0.7v5c0 0.6 0.4 1 1 1h5c0.3 0 0.5-0.1 0.7-0.3l13-13c0.4-0.4 0.4-1 0-1.4zM7.6 20h-3.6v-3.6l12-12 3.6 3.6-12 12z"></path>
</symbol>
<symbol id="icon-log-in" viewBox="0 0 24 24">
<title>log-in</title>
<path d="M19 2h-4c-0.6 0-1 0.4-1 1s0.4 1 1 1h4c0.6 0 1 0.4 1 1v14c0 0.6-0.4 1-1 1h-4c-0.6 0-1 0.4-1 1s0.4 1 1 1h4c1.7 0 3-1.3 3-3v-14c0-1.7-1.3-3-3-3z"></path>
<path d="M15.9 12.4c0.1-0.2 0.1-0.5 0-0.8-0.1-0.1-0.1-0.2-0.2-0.3l-5-5c-0.4-0.4-1-0.4-1.4 0s-0.4 1 0 1.4l3.3 3.3h-9.6c-0.6 0-1 0.4-1 1s0.4 1 1 1h9.6l-3.3 3.3c-0.4 0.4-0.4 1 0 1.4 0.2 0.2 0.4 0.3 0.7 0.3s0.5-0.1 0.7-0.3l5-5c0.1-0.1 0.2-0.2 0.2-0.3z"></path>
</symbol>
<symbol id="icon-message-circle" viewBox="0 0 24 24">
<title>message-circle</title>
<path d="M22 10.9c-0.3-4.8-4.1-8.7-9-8.9h-0.5c0 0 0 0 0 0-1.5 0-2.9 0.3-4.2 1-3.3 1.6-5.3 4.9-5.3 8.5 0 1.3 0.3 2.7 0.8 3.9l-1.8 5.3c-0.1 0.4 0 0.8 0.2 1 0.3 0.2 0.5 0.3 0.8 0.3 0.1 0 0.2 0 0.3-0.1l5.3-1.8c1.2 0.5 2.5 0.8 3.9 0.8 3.6 0 6.9-2 8.5-5.2 0.7-1.3 1-2.8 1-4.3v-0.5zM20 11.5c0 0 0 0 0 0 0 1.2-0.3 2.3-0.8 3.4-1.3 2.6-3.8 4.1-6.7 4.1-1.2 0-2.3-0.3-3.3-0.8-0.2-0.1-0.5-0.1-0.8-0.1l-3.8 1.3 1.3-3.8c0.1-0.3 0.1-0.5-0.1-0.8-0.5-1-0.8-2.2-0.8-3.3 0-2.9 1.6-5.4 4.2-6.7 1-0.5 2.2-0.8 3.3-0.8 0 0 0 0 0 0h0.4c3.8 0.2 6.8 3.2 7.1 7v0.5z"></path>
</symbol>
<symbol id="icon-message-square" viewBox="0 0 24 24">
<title>message-square</title>
<path d="M19 2h-14c-1.7 0-3 1.3-3 3v16c0 0.4 0.2 0.8 0.6 0.9 0.1 0.1 0.3 0.1 0.4 0.1 0.3 0 0.5-0.1 0.7-0.3l3.7-3.7h11.6c1.7 0 3-1.3 3-3v-10c0-1.7-1.3-3-3-3zM20 15c0 0.6-0.4 1-1 1h-12c-0.3 0-0.5 0.1-0.7 0.3l-2.3 2.3v-13.6c0-0.6 0.4-1 1-1h14c0.6 0 1 0.4 1 1v10z"></path>
</symbol>
<symbol id="icon-search" viewBox="0 0 24 24">
<title>search</title>
<path d="M21.7 20.3l-3.7-3.7c1.2-1.5 2-3.5 2-5.6 0-5-4-9-9-9s-9 4-9 9c0 5 4 9 9 9 2.1 0 4.1-0.7 5.6-2l3.7 3.7c0.2 0.2 0.5 0.3 0.7 0.3s0.5-0.1 0.7-0.3c0.4-0.4 0.4-1 0-1.4zM4 11c0-3.9 3.1-7 7-7s7 3.1 7 7c0 1.9-0.8 3.7-2 4.9 0 0 0 0 0 0s0 0 0 0c-1.3 1.3-3 2-4.9 2-4 0.1-7.1-3-7.1-6.9z"></path>
</symbol>
<symbol id="icon-star" viewBox="0 0 24 24">
<title>star</title>
<path d="M23 9c-0.1-0.4-0.4-0.6-0.8-0.7l-6.4-0.9-2.9-5.8c-0.3-0.7-1.5-0.7-1.8 0l-2.9 5.7-6.3 1c-0.4 0-0.7 0.3-0.9 0.7-0.1 0.4 0 0.8 0.3 1l4.6 4.5-1.1 6.4c-0.1 0.4 0.1 0.8 0.4 1s0.7 0.3 1.1 0.1l5.7-3 5.7 3c0.2 0 0.3 0 0.5 0s0.4-0.1 0.6-0.2c0.3-0.2 0.5-0.6 0.4-1l-1.1-6.4 4.6-4.5c0.3-0.2 0.4-0.6 0.3-0.9zM16.3 13.4c-0.2 0.3-0.3 0.6-0.3 0.9l0.8 4.9-4.4-2.3c-0.3-0.2-0.6-0.2-0.9 0l-4.4 2.3 0.9-4.9c0-0.3-0.1-0.6-0.3-0.9l-3.6-3.4 4.9-0.7c0.3 0 0.6-0.3 0.8-0.5l2.2-4.5 2.2 4.4c0.1 0.3 0.4 0.5 0.8 0.5l4.9 0.7-3.6 3.5z"></path>
</symbol>
<symbol id="icon-target" viewBox="0 0 24 24">
<title>target</title>
<path d="M12 1c-6.1 0-11 4.9-11 11s4.9 11 11 11 11-4.9 11-11-4.9-11-11-11zM12 21c-5 0-9-4-9-9s4-9 9-9c5 0 9 4 9 9s-4 9-9 9z"></path>
<path d="M12 5c-3.9 0-7 3.1-7 7s3.1 7 7 7c3.9 0 7-3.1 7-7s-3.1-7-7-7zM12 17c-2.8 0-5-2.2-5-5s2.2-5 5-5 5 2.2 5 5-2.2 5-5 5z"></path>
<path d="M12 9c-1.7 0-3 1.3-3 3s1.3 3 3 3 3-1.3 3-3-1.3-3-3-3zM12 13c-0.6 0-1-0.4-1-1s0.4-1 1-1 1 0.4 1 1-0.4 1-1 1z"></path>
</symbol>
<symbol id="icon-user" viewBox="0 0 24 24">
<title>user</title>
<path d="M16 14h-8c-2.8 0-5 2.2-5 5v2c0 0.6 0.4 1 1 1s1-0.4 1-1v-2c0-1.7 1.3-3 3-3h8c1.7 0 3 1.3 3 3v2c0 0.6 0.4 1 1 1s1-0.4 1-1v-2c0-2.8-2.2-5-5-5z"></path>
<path d="M12 12c2.8 0 5-2.2 5-5s-2.2-5-5-5-5 2.2-5 5 2.2 5 5 5zM12 4c1.7 0 3 1.3 3 3s-1.3 3-3 3-3-1.3-3-3 1.3-3 3-3z"></path>
</symbol>
<symbol id="icon-watch" viewBox="0 0 24 24">
<title>watch</title>
<path d="M20 12c0-2.3-1-4.3-2.5-5.8l-0.3-3.5c-0.2-1.5-1.4-2.7-3-2.7 0 0 0 0 0 0h-4.4c-1.5 0-2.8 1.2-3 2.7l-0.3 3.5c-1.5 1.4-2.5 3.5-2.5 5.8s1 4.4 2.5 5.8l0.3 3.5c0.2 1.5 1.5 2.7 3 2.7 0 0 0 0 0 0h4.3c0 0 0 0 0 0 1.6 0 2.8-1.2 3-2.7l0.3-3.4c1.6-1.5 2.6-3.6 2.6-5.9zM8.8 2.9c0-0.5 0.5-0.9 1-0.9h4.4c0.5 0 1 0.4 1 0.9l0.2 1.8c-1.1-0.4-2.2-0.7-3.4-0.7s-2.3 0.3-3.3 0.7l0.1-1.8zM6 12c0-3.3 2.7-6 6-6s6 2.7 6 6-2.7 6-6 6-6-2.7-6-6zM15.2 21.1c0 0.5-0.5 0.9-1 0.9 0 0 0 0 0 0h-4.4c0 0 0 0 0 0-0.5 0-0.9-0.4-1-0.9l-0.2-1.8c1 0.5 2.1 0.7 3.3 0.7s2.3-0.3 3.3-0.7v1.8z"></path>
<path d="M12.8 14.2c0.2 0.2 0.5 0.3 0.7 0.3s0.5-0.1 0.7-0.3c0.4-0.4 0.4-1 0-1.4l-1.2-1.2v-2.6c0-0.6-0.4-1-1-1s-1 0.4-1 1v3c0 0.3 0.1 0.5 0.3 0.7l1.5 1.5z"></path>
</symbol>
</defs>
</svg>
